<svg width="137" height="26" viewBox="0 0 137 26" fill="none" xmlns="http://www.w3.org/2000/svg">
<g clip-path="url(#clip0_4_430)">
<path d="M0.0529785 11.41V1.3457C0.0529785 1.3457 0.486143 0.311318 0.912539 0.653784L5.50137 0.583893C5.50137 0.583893 6.07667 0.653784 6.26618 1.49248V11.41C6.26618 11.41 6.40831 11.5079 5.50137 12.1998H0.912539C0.912539 12.1998 0.289865 12.053 0.0529785 11.41Z" fill="#FF4E00"/>
<path d="M10.8955 23.7807V2.21232C10.8955 2.21232 11.3287 -0.0102103 11.7551 0.730634L16.3439 0.576874C16.3439 0.576874 16.9192 0.730634 17.1087 2.52683V23.7737C17.1087 23.7737 17.2508 23.9834 16.3439 25.465H11.7551C11.7551 25.465 11.1324 25.1505 10.8955 23.7737V23.7807Z" fill="#FF4E00"/>
<path d="M0.0529785 24.6823V14.618C0.0529785 14.618 0.486143 13.5836 0.912539 13.9261L5.50137 13.8562C5.50137 13.8562 6.07667 13.9261 6.26618 14.7648V24.6823C6.26618 24.6823 6.40831 24.7801 5.50137 25.472H0.912539C0.912539 25.472 0.289865 25.3253 0.0529785 24.6823Z" fill="#FF4E00"/>
<path d="M18.591 14.4153V4.25316C18.591 4.25316 19.1189 3.36554 19.4979 3.95962C19.877 4.55369 22.7467 9.43907 22.7467 9.43907C22.7467 9.43907 23.0309 9.78154 23.4167 9.48799C23.8025 9.19445 28.2898 1.15 28.2898 1.15C28.2898 1.15 28.9599 0.465069 29.2441 0.583884C29.5284 0.702698 34.4962 0.583884 34.4962 0.583884C34.4962 0.583884 35.0242 0.555927 35.2137 1.49247C35.4032 2.42901 35.2137 24.3818 35.2137 24.3818C35.2137 24.3818 35.6942 24.4307 34.6857 25.4651H29.8127C29.8127 25.4651 29.481 25.6608 29.0478 24.3818V13.8492C29.0478 13.8492 29.2374 12.7379 28.2357 13.3739L23.6942 21.3135C23.6942 21.3135 23.261 21.9076 22.6925 21.5092L18.5842 14.4083L18.591 14.4153Z" fill="#FF4E00"/>
<path d="M39.9919 1.5903V24.7801C39.9919 24.7801 40.371 25.4441 40.8515 25.479L45.393 25.4651C45.393 25.4651 46.0156 25.2694 46.1578 24.3817C46.2999 23.4941 46.1578 7.60791 46.1578 7.60791C46.1578 7.60791 46.063 6.81814 47.2542 6.81814C48.4454 6.81814 56.6214 6.76922 56.6214 6.76922C56.6214 6.76922 57.7178 6.86706 57.9141 7.46114C58.1104 8.05521 58.0562 9.97721 56.6688 9.83044H48.6891C48.6891 9.83044 47.9716 10.124 47.8295 10.5713C47.6874 11.0186 47.7821 15.5056 47.7821 15.5056C47.7821 15.5056 47.8633 16.0507 48.9936 16.2464L57.7178 16.1975C57.7178 16.1975 62.354 15.0164 63.4505 11.5567C64.5469 8.09714 64.4522 3.12091 59.0106 0.849451C59.0106 0.849451 57.2441 0.437095 56.8109 0.569888C56.3777 0.70268 40.8989 0.541931 40.8989 0.541931C40.8989 0.541931 40.1815 0.800528 39.9919 1.5903Z" fill="#FF4E00"/>
<path d="M62.2121 24.5775L70.185 1.29678C70.185 1.29678 70.5167 0.583888 71.3762 0.541953C72.2358 0.500018 76.2967 0.541953 76.2967 0.541953C76.2967 0.541953 77.2036 0.555931 77.251 1.19893C77.2984 1.84193 85.1359 23.8436 85.1359 23.8436C85.1359 23.8436 85.515 24.85 84.7569 25.486H79.6943C79.6943 25.486 79.9786 25.5769 78.9769 25.0317L78.1647 22.7114C78.1647 22.7114 78.07 22.2641 77.2104 22.32C76.3508 22.3759 72.3373 22.32 72.3373 22.32C72.3373 22.32 71.3356 22.2221 71.6672 20.7894C71.9989 19.3566 73.4337 16.2534 73.4337 16.2534L75.0581 16.0577C75.0581 16.0577 75.586 16.1556 75.5387 14.5761L74.6317 12.0111C74.6317 12.0111 73.9143 11.0745 73.0547 11.9621L68.5133 25.1366C68.5133 25.1366 68.2222 25.4511 67.7688 25.493C67.3153 25.535 63.0649 25.493 63.0649 25.493C63.0649 25.493 62.3001 25.4301 62.2053 24.5914L62.2121 24.5775Z" fill="#FF4E00"/>
<path d="M86.0022 12.1997H90.6384C90.6384 12.1997 91.2137 12.053 91.3559 11.1164C91.498 10.1799 91.3559 9.09659 91.3559 9.09659C91.3559 9.09659 91.5928 6.87405 95.2747 6.87405H108.412C108.412 6.87405 109.461 6.9719 109.413 5.58806C109.366 4.20422 109.413 1.49245 109.413 1.49245C109.413 1.49245 109.366 0.499998 108.121 0.527954C106.875 0.55591 93.7383 0.527954 93.7383 0.527954C93.7383 0.527954 88.9126 0.954289 86.476 5.09882C86.476 5.09882 83.8973 10.4734 85.9955 12.1997H86.0022Z" fill="#FF4E00"/>
<path d="M86.0022 13.7793H90.3947C90.3947 13.7793 91.3964 14.1218 91.2069 14.8626C91.0174 15.6035 91.2543 19.5523 94.2188 19.1539L108.073 19.1819C108.073 19.1819 109.224 19.105 109.413 20.1394C109.603 21.1738 109.413 24.7801 109.413 24.7801C109.413 24.7801 108.98 25.528 108.506 25.5C108.033 25.4721 93.3118 25.5 93.3118 25.5C93.3118 25.5 89.8736 25.7167 86.9565 21.7678C84.0394 17.819 85.4269 13.8771 86.0022 13.7723V13.7793Z" fill="#FF4E00"/>
<path d="M111.748 1.04516V5.71388C111.748 5.71388 111.491 6.30795 112.703 6.89503C113.914 7.48212 135.254 6.89503 135.254 6.89503C135.254 6.89503 135.958 7.02783 136.019 5.64398C136.08 4.26014 136.019 1.36666 136.019 1.36666C136.019 1.36666 135.572 0.318292 134.429 0.513987C133.285 0.709682 112.581 0.513987 112.581 0.513987C112.581 0.513987 112.324 0.311303 111.755 1.03817L111.748 1.04516Z" fill="#FF4E00"/>
<path d="M121.19 25.486H125.711C125.711 25.486 126.286 25.6608 126.855 24.8151C127.423 23.9694 126.855 9.04767 126.855 9.04767C126.855 9.04767 126.984 8.55844 125.643 8.5165C124.303 8.47457 121.501 8.5165 121.501 8.5165C121.501 8.5165 120.486 8.83101 120.676 9.62777C120.865 10.4245 120.676 24.9059 120.676 24.9059C120.676 24.9059 120.479 25.0807 121.183 25.486H121.19Z" fill="#FF4E00"/>
</g>
<defs>
<clipPath id="clip0_4_430">
<rect width="136" height="25" fill="white" transform="translate(0.0529785 0.5)"/>
</clipPath>
</defs>
</svg>
