<svg width="48" height="48" viewBox="0 0 48 48" fill="none" xmlns="http://www.w3.org/2000/svg">
<path d="M23.6715 43.1452C34.487 43.1452 43.2548 34.3774 43.2548 23.5618C43.2548 12.7463 34.487 3.97852 23.6715 3.97852C12.8559 3.97852 4.08813 12.7463 4.08813 23.5618C4.08813 34.3774 12.8559 43.1452 23.6715 43.1452Z" fill="white"/>
<path fill-rule="evenodd" clip-rule="evenodd" d="M28.8757 16.6664C28.2654 16.5443 27.4411 16.4531 26.9227 16.4531C25.5189 16.4531 25.4277 17.0634 25.4277 18.04V19.7784H28.9368L28.6309 23.3794H25.4277V34.3327H21.0339V23.3794H18.7756V19.7784H21.0339V17.551C21.0339 14.5 22.4679 12.791 26.0682 12.791C27.3191 12.791 28.2346 12.9741 29.4244 13.2182L28.8757 16.6664Z" fill="black"/>
</svg>
