<svg width="40" height="41" viewBox="0 0 40 41" fill="none" xmlns="http://www.w3.org/2000/svg">
<path d="M19.5488 40.0749C30.3414 40.0749 39.0905 31.3071 39.0905 20.4915C39.0905 9.67596 30.3414 0.908203 19.5488 0.908203C8.7562 0.908203 0.00708008 9.67596 0.00708008 20.4915C0.00708008 31.3071 8.7562 40.0749 19.5488 40.0749Z" fill="white"/>
<path fill-rule="evenodd" clip-rule="evenodd" d="M24.7114 13.596C24.1011 13.4739 23.2768 13.3828 22.7584 13.3828C21.3546 13.3828 21.2634 13.9931 21.2634 14.9697V16.7081H24.7725L24.4666 20.3091H21.2634V31.2624H16.8696V20.3091H14.6113V16.7081H16.8696V14.4807C16.8696 11.4296 18.3036 9.7207 21.9039 9.7207C23.1548 9.7207 24.0703 9.90381 25.2601 10.1479L24.7114 13.596Z" fill="black"/>
</svg>
