<svg width="40" height="40" viewBox="0 0 40 40" fill="none" xmlns="http://www.w3.org/2000/svg">
<path d="M19.6715 39.2287C30.487 39.2287 39.2548 30.4609 39.2548 19.6453C39.2548 8.82977 30.487 0.0620117 19.6715 0.0620117C8.85589 0.0620117 0.0881348 8.82977 0.0881348 19.6453C0.0881348 30.4609 8.85589 39.2287 19.6715 39.2287Z" fill="white"/>
<g clip-path="url(#clip0_4_610)">
<path fill-rule="evenodd" clip-rule="evenodd" d="M30.6714 13.8295V26.8401L25.3529 20.4947L24.3422 21.2667L29.7125 27.6751H9.63027L15.0005 21.2667L13.9899 20.4947L8.67139 26.8401V13.8295L19.6707 22.9343L30.6714 13.8295ZM30.6706 11.6172V12.1928L19.6713 21.2976L8.6719 12.1928V11.6172H30.6706Z" fill="black"/>
</g>
<defs>
<clipPath id="clip0_4_610">
<rect width="22" height="21" fill="white" transform="translate(8.67139 9.14551)"/>
</clipPath>
</defs>
</svg>
