<svg width="40" height="40" viewBox="0 0 40 40" fill="none" xmlns="http://www.w3.org/2000/svg">
<path d="M19.6715 39.3952C30.487 39.3952 39.2548 30.6274 39.2548 19.8118C39.2548 8.99627 30.487 0.228516 19.6715 0.228516C8.85589 0.228516 0.0881348 8.99627 0.0881348 19.8118C0.0881348 30.6274 8.85589 39.3952 19.6715 39.3952Z" fill="white"/>
<path fill-rule="evenodd" clip-rule="evenodd" d="M9.72851 12.1491C9.92957 10.6641 11.2399 9.72656 12.6019 9.72656H15.1922C16.4944 9.72656 17.6506 10.5599 18.0624 11.7953L19.1208 14.9704C19.5756 16.3351 18.7725 17.7982 17.3769 18.1472C17.0357 18.2325 16.918 18.6574 17.1667 18.9062L20.5769 22.3163C20.8257 22.5651 21.2506 22.4473 21.3359 22.1061C21.6848 20.7106 23.148 19.9074 24.5127 20.3622L27.6877 21.4207C28.9231 21.8324 29.7565 22.9886 29.7565 24.2908V26.8812C29.7565 28.2431 28.819 29.5535 27.3339 29.7545C26.6416 29.8483 25.9353 29.8966 25.2182 29.8966C16.585 29.8966 9.58643 22.898 9.58643 14.2648C9.58643 13.5478 9.63477 12.8415 9.72851 12.1491Z" fill="#030303"/>
</svg>
