<svg width="41" height="40" viewBox="0 0 41 40" fill="none" xmlns="http://www.w3.org/2000/svg">
<path d="M20.4586 39.6173C31.2742 39.6173 40.0419 30.8496 40.0419 20.034C40.0419 9.21844 31.2742 0.450684 20.4586 0.450684C9.643 0.450684 0.875244 9.21844 0.875244 20.034C0.875244 30.8496 9.643 39.6173 20.4586 39.6173Z" fill="white"/>
<g clip-path="url(#clip0_31_91)">
<path fill-rule="evenodd" clip-rule="evenodd" d="M31.4585 14.2181V27.2287L26.14 20.8834L25.1293 21.6554L30.4996 28.0637H10.4174L15.7877 21.6554L14.777 20.8834L9.4585 27.2287V14.2181L20.4579 23.323L31.4585 14.2181ZM31.4577 12.0059V12.5815L20.4584 21.6863L9.45901 12.5815V12.0059H31.4577Z" fill="black"/>
</g>
<defs>
<clipPath id="clip0_31_91">
<rect width="22" height="21" fill="white" transform="translate(9.4585 9.53418)"/>
</clipPath>
</defs>
</svg>
