<svg width="40" height="40" viewBox="0 0 40 40" fill="none" xmlns="http://www.w3.org/2000/svg">
<path d="M20.2508 39.8131C31.0664 39.8131 39.8341 31.0454 39.8341 20.2298C39.8341 9.41424 31.0664 0.646484 20.2508 0.646484C9.43524 0.646484 0.66748 9.41424 0.66748 20.2298C0.66748 31.0454 9.43524 39.8131 20.2508 39.8131Z" fill="white"/>
<path fill-rule="evenodd" clip-rule="evenodd" d="M10.3079 12.5671C10.5089 11.0821 11.8193 10.1445 13.1812 10.1445H15.7715C17.0738 10.1445 18.2299 10.9778 18.6417 12.2133L19.7002 15.3884C20.155 16.7531 19.3518 18.2162 17.9563 18.5651C17.615 18.6504 17.4973 19.0753 17.746 19.3241L21.1562 22.7343C21.405 22.9831 21.8299 22.8653 21.9152 22.5241C22.2642 21.1285 23.7273 20.3254 25.092 20.7802L28.2671 21.8386C29.5025 22.2504 30.3358 23.4065 30.3358 24.7088V27.2992C30.3358 28.661 29.3983 29.9715 27.9133 30.1725C27.221 30.2663 26.5146 30.3146 25.7976 30.3146C17.1644 30.3146 10.1658 23.316 10.1658 14.6828C10.1658 13.9657 10.2141 13.2594 10.3079 12.5671Z" fill="#030303"/>
</svg>
