<svg width="40" height="39" viewBox="0 0 40 39" fill="none" xmlns="http://www.w3.org/2000/svg">
<g clip-path="url(#clip0_31_99)">
<path d="M20 22.9278C21.9375 22.9278 23.5235 21.3892 23.5235 19.4925C23.5235 18.746 23.2735 18.0528 22.8594 17.4892C22.2188 16.6284 21.1797 16.0571 20.0078 16.0571C18.836 16.0571 17.7969 16.6208 17.1563 17.4892C16.7422 18.0528 16.4922 18.746 16.4922 19.4925C16.4844 21.3892 18.0625 22.9278 20 22.9278Z" fill="white"/>
<path d="M27.6875 15.3029V12.4236V11.9971H27.25L24.2969 12.0047L24.3125 15.3105L27.6875 15.3029Z" fill="white"/>
<path d="M25.4688 19.4999C25.4688 22.4401 23.0156 24.8319 20 24.8319C16.9844 24.8319 14.5312 22.4401 14.5312 19.4999C14.5312 18.7915 14.6797 18.1136 14.9375 17.4966H11.9531V25.4794C11.9531 26.5077 12.8125 27.3456 13.8672 27.3456H26.1328C27.1875 27.3456 28.0469 26.5077 28.0469 25.4794V17.4966H25.0625C25.3281 18.1136 25.4688 18.7915 25.4688 19.4999Z" fill="white"/>
<path d="M20 0C8.95313 0 0 8.7293 0 19.5C0 30.2707 8.95313 39 20 39C31.0469 39 40 30.2707 40 19.5C40 8.7293 31.0469 0 20 0ZM30 17.4967V25.4795C30 27.559 28.2656 29.25 26.1328 29.25H13.8672C11.7344 29.25 10 27.559 10 25.4795V17.4967V13.5129C10 11.4334 11.7344 9.74238 13.8672 9.74238H26.1328C28.2656 9.74238 30 11.4334 30 13.5129V17.4967Z" fill="white"/>
</g>
<defs>
<clipPath id="clip0_31_99">
<rect width="40" height="39" fill="white"/>
</clipPath>
</defs>
</svg>
