<svg width="41" height="40" viewBox="0 0 41 40" fill="none" xmlns="http://www.w3.org/2000/svg">
<g clip-path="url(#clip0_4_604)">
<path d="M20.6714 22.9898C22.6089 22.9898 24.1949 21.4512 24.1949 19.5545C24.1949 18.808 23.9449 18.1148 23.5308 17.5512C22.8902 16.6904 21.8511 16.1191 20.6792 16.1191C19.5074 16.1191 18.4683 16.6828 17.8277 17.5512C17.4136 18.1148 17.1636 18.808 17.1636 19.5545C17.1558 21.4512 18.7339 22.9898 20.6714 22.9898Z" fill="white"/>
<path d="M28.3589 15.3649V12.4856V12.0591H27.9214L24.9683 12.0667L24.9839 15.3726L28.3589 15.3649Z" fill="white"/>
<path d="M26.1401 19.5619C26.1401 22.5021 23.687 24.8939 20.6714 24.8939C17.6558 24.8939 15.2026 22.5021 15.2026 19.5619C15.2026 18.8535 15.3511 18.1756 15.6089 17.5586H12.6245V25.5414C12.6245 26.5697 13.4839 27.4076 14.5386 27.4076H26.8042C27.8589 27.4076 28.7183 26.5697 28.7183 25.5414V17.5586H25.7339C25.9995 18.1756 26.1401 18.8535 26.1401 19.5619Z" fill="white"/>
<path d="M20.6714 0.0620117C9.62451 0.0620117 0.671387 8.79131 0.671387 19.562C0.671387 30.3327 9.62451 39.062 20.6714 39.062C31.7183 39.062 40.6714 30.3327 40.6714 19.562C40.6714 8.79131 31.7183 0.0620117 20.6714 0.0620117ZM30.6714 17.5587V25.5415C30.6714 27.621 28.937 29.312 26.8042 29.312H14.5386C12.4058 29.312 10.6714 27.621 10.6714 25.5415V17.5587V13.5749C10.6714 11.4954 12.4058 9.80439 14.5386 9.80439H26.8042C28.937 9.80439 30.6714 11.4954 30.6714 13.5749V17.5587Z" fill="white"/>
</g>
<defs>
<clipPath id="clip0_4_604">
<rect width="40" height="39" fill="white" transform="translate(0.671387 0.0620117)"/>
</clipPath>
</defs>
</svg>
