<svg width="746" height="198" viewBox="0 0 746 198" fill="none" xmlns="http://www.w3.org/2000/svg">
<path d="M37.5187 159.147H12.6801C10.6976 159.214 8.75239 159.705 6.97487 160.585C5.05443 161.623 3.45502 163.167 2.35038 165.049C1.24575 166.932 0.678142 169.081 0.709219 171.264C0.740295 173.446 1.36887 175.579 2.52666 177.429C3.68444 179.279 5.32716 180.777 7.27636 181.759C9.10553 182.598 11.086 183.055 13.0976 183.105H27.2679H27.5694C28.0029 183.082 28.4325 183.196 28.7985 183.429C29.106 183.954 29.2361 184.564 29.1696 185.169C29.1696 186.027 29.1696 187.813 26.5257 187.929H2.22051C2.0204 187.929 1.82246 187.97 1.63894 188.05C1.45543 188.13 1.29026 188.246 1.15368 188.392C0.873207 188.677 0.715068 189.06 0.713031 189.459V196.023C0.708798 196.221 0.745768 196.418 0.821609 196.602C0.897451 196.786 1.01052 196.952 1.15368 197.089C1.30332 197.217 1.47671 197.313 1.66382 197.373C1.85093 197.432 2.04803 197.454 2.2437 197.437H26.5953C28.2128 197.473 29.8205 197.178 31.3202 196.571C32.8199 195.964 34.1801 195.058 35.3176 193.907C36.4551 192.757 37.3459 191.387 37.9357 189.88C38.5255 188.373 38.8019 186.762 38.7479 185.145C38.8342 183.5 38.5615 181.855 37.9488 180.325C37.3361 178.795 36.398 177.417 35.1995 176.286C32.9162 174.335 29.9646 173.345 26.9664 173.526H13.0512C12.4516 173.473 11.8644 173.324 11.3118 173.086C10.6856 172.784 10.2681 172.483 10.2681 171.161C10.2681 168.842 11.938 168.842 12.7961 168.842H37.5187C37.9185 168.842 38.302 168.683 38.5847 168.4C38.8674 168.117 39.0262 167.734 39.0262 167.334V160.655C39.0262 160.255 38.8674 159.872 38.5847 159.589C38.302 159.306 37.9185 159.147 37.5187 159.147Z" fill="#FF4E00"/>
<path d="M110.968 159.147H88.5177C86.6216 159.153 84.7454 159.534 82.9971 160.268C81.2488 161.002 79.6629 162.075 78.3308 163.424C76.9986 164.774 75.9466 166.373 75.2351 168.131C74.5236 169.888 74.1667 171.769 74.1851 173.665V183.081C74.1597 184.985 74.5183 186.875 75.2395 188.638C75.9607 190.4 77.0297 191.999 78.3827 193.339C79.7356 194.679 81.3448 195.732 83.1141 196.437C84.8833 197.141 86.7764 197.481 88.6801 197.437H110.968C111.367 197.437 111.751 197.278 112.034 196.996C112.316 196.713 112.475 196.33 112.475 195.93V189.413C112.475 189.215 112.436 189.019 112.36 188.836C112.285 188.653 112.174 188.487 112.034 188.347C111.894 188.207 111.727 188.096 111.544 188.02C111.362 187.944 111.166 187.905 110.968 187.905H88.6801C88.0197 187.947 87.358 187.846 86.7396 187.611C86.1212 187.376 85.5603 187.011 85.0946 186.54C84.6288 186.07 84.2691 185.506 84.0395 184.885C83.8099 184.265 83.7158 183.602 83.7634 182.942V173.665C83.6627 172.861 83.8082 172.044 84.1808 171.324C84.5534 170.603 85.1356 170.013 85.8507 169.63C86.7819 169.142 87.797 168.836 88.8424 168.726H110.991C111.391 168.726 111.774 168.567 112.057 168.284C112.339 168.001 112.498 167.618 112.498 167.218V160.655C112.498 160.455 112.459 160.257 112.381 160.072C112.304 159.888 112.191 159.721 112.049 159.581C111.906 159.44 111.737 159.33 111.552 159.255C111.366 159.181 111.168 159.144 110.968 159.147Z" fill="#FF4E00"/>
<path d="M170.409 160.145C170.307 159.851 170.116 159.597 169.862 159.418C169.608 159.239 169.305 159.145 168.994 159.147H160.575C160.266 159.148 159.964 159.244 159.711 159.423C159.458 159.601 159.266 159.853 159.161 160.145L146.66 195.466C146.583 195.695 146.562 195.939 146.597 196.178C146.633 196.417 146.725 196.645 146.865 196.841C147.005 197.038 147.19 197.199 147.404 197.311C147.619 197.422 147.856 197.482 148.098 197.484H155.056C155.366 197.486 155.67 197.391 155.924 197.213C156.177 197.034 156.369 196.78 156.47 196.486L157.491 193.611C157.597 193.315 157.793 193.061 158.05 192.882C158.308 192.703 158.615 192.609 158.929 192.613H170.664C170.974 192.611 171.278 192.706 171.532 192.884C171.786 193.063 171.977 193.317 172.079 193.611L173.099 196.486C173.219 196.793 173.436 197.051 173.716 197.223C173.997 197.395 174.326 197.47 174.653 197.437H181.611C181.853 197.44 182.093 197.382 182.307 197.268C182.522 197.155 182.705 196.99 182.84 196.788C182.977 196.591 183.066 196.364 183.098 196.126C183.131 195.888 183.106 195.646 183.025 195.42L170.409 160.145ZM167.44 182.386C167.3 182.58 167.115 182.739 166.902 182.848C166.688 182.957 166.451 183.013 166.211 183.012H163.382C163.14 183.01 162.902 182.95 162.688 182.839C162.474 182.727 162.289 182.566 162.148 182.37C162.008 182.173 161.916 181.945 161.881 181.706C161.845 181.467 161.867 181.223 161.944 180.994L163.358 177.005C163.468 176.712 163.664 176.459 163.921 176.281C164.178 176.102 164.484 176.007 164.796 176.008C165.106 176.009 165.408 176.105 165.661 176.283C165.914 176.462 166.106 176.714 166.211 177.005L167.695 180.994C167.766 181.23 167.78 181.479 167.735 181.721C167.691 181.963 167.59 182.19 167.44 182.386Z" fill="#FF4E00"/>
<path d="M253.946 159.147H218.718C218.52 159.147 218.324 159.186 218.141 159.262C217.958 159.338 217.792 159.449 217.652 159.589C217.512 159.729 217.401 159.895 217.325 160.078C217.249 160.261 217.21 160.457 217.21 160.655V195.976C217.222 196.368 217.386 196.739 217.668 197.012C217.949 197.285 218.326 197.437 218.718 197.437H225.281C225.681 197.437 226.064 197.278 226.347 196.996C226.63 196.713 226.789 196.33 226.789 195.93V184.566C226.789 184.166 226.947 183.782 227.23 183.5C227.513 183.217 227.896 183.058 228.296 183.058H254.039C254.237 183.058 254.433 183.019 254.616 182.943C254.799 182.868 254.965 182.757 255.105 182.617C255.245 182.477 255.356 182.311 255.432 182.128C255.508 181.945 255.547 181.749 255.547 181.551V175.034C255.547 174.836 255.508 174.64 255.432 174.457C255.356 174.274 255.245 174.108 255.105 173.968C254.965 173.828 254.799 173.717 254.616 173.641C254.433 173.565 254.237 173.526 254.039 173.526H228.203C227.803 173.526 227.42 173.367 227.137 173.085C226.855 172.802 226.696 172.419 226.696 172.019V170.233C226.696 169.833 226.855 169.45 227.137 169.167C227.42 168.884 227.803 168.726 228.203 168.726H253.946C254.144 168.726 254.34 168.687 254.523 168.611C254.706 168.535 254.872 168.424 255.012 168.284C255.152 168.144 255.263 167.978 255.339 167.795C255.415 167.612 255.454 167.416 255.454 167.218V160.655C255.454 160.457 255.415 160.261 255.339 160.078C255.263 159.895 255.152 159.729 255.012 159.589C254.872 159.449 254.706 159.338 254.523 159.262C254.34 159.186 254.144 159.147 253.946 159.147Z" fill="#FF4E00"/>
<path d="M328.207 159.147H292.932C292.734 159.147 292.538 159.186 292.355 159.262C292.172 159.338 292.006 159.449 291.866 159.589C291.726 159.729 291.615 159.895 291.539 160.078C291.464 160.261 291.425 160.457 291.425 160.655V195.976C291.437 196.368 291.601 196.739 291.882 197.012C292.164 197.285 292.54 197.437 292.932 197.437H299.495C299.895 197.437 300.279 197.278 300.561 196.996C300.844 196.713 301.003 196.33 301.003 195.93V184.566C301.003 184.166 301.162 183.782 301.444 183.5C301.727 183.217 302.111 183.058 302.51 183.058H328.253C328.451 183.058 328.647 183.019 328.83 182.943C329.013 182.868 329.179 182.757 329.319 182.617C329.459 182.477 329.57 182.311 329.646 182.128C329.722 181.945 329.761 181.749 329.761 181.551V175.034C329.761 174.634 329.602 174.251 329.319 173.968C329.037 173.685 328.653 173.526 328.253 173.526H302.51C302.111 173.526 301.727 173.368 301.444 173.085C301.162 172.802 301.003 172.419 301.003 172.019V170.233C301.003 169.833 301.162 169.45 301.444 169.167C301.727 168.884 302.111 168.726 302.51 168.726H328.253C328.653 168.726 329.037 168.567 329.319 168.284C329.602 168.001 329.761 167.618 329.761 167.218V160.655C329.761 160.453 329.721 160.253 329.642 160.067C329.563 159.881 329.448 159.713 329.303 159.572C329.158 159.431 328.986 159.321 328.798 159.248C328.61 159.175 328.409 159.141 328.207 159.147Z" fill="#FF4E00"/>
<path d="M383.381 159.147C379.586 159.147 375.877 160.273 372.723 162.381C369.568 164.49 367.11 167.487 365.659 170.993C364.208 174.499 363.829 178.356 364.571 182.077C365.313 185.798 367.142 189.216 369.827 191.897C372.512 194.579 375.931 196.404 379.653 197.141C383.375 197.879 387.232 197.495 390.737 196.04C394.241 194.585 397.235 192.123 399.339 188.966C401.444 185.809 402.565 182.098 402.561 178.304C402.561 175.786 402.064 173.293 401.1 170.968C400.136 168.642 398.723 166.529 396.942 164.75C395.16 162.971 393.046 161.56 390.719 160.599C388.392 159.637 385.898 159.144 383.381 159.147ZM383.381 187.905C381.481 187.91 379.622 187.351 378.04 186.298C376.458 185.246 375.224 183.748 374.494 181.994C373.763 180.24 373.57 178.309 373.938 176.445C374.306 174.581 375.218 172.868 376.56 171.523C377.902 170.178 379.613 169.261 381.476 168.889C383.339 168.516 385.271 168.705 387.027 169.431C388.782 170.157 390.283 171.388 391.339 172.967C392.395 174.547 392.959 176.404 392.959 178.304C392.962 179.564 392.717 180.812 392.237 181.976C391.757 183.141 391.052 184.2 390.162 185.092C389.272 185.984 388.215 186.691 387.052 187.174C385.888 187.657 384.641 187.905 383.381 187.905Z" fill="#FF4E00"/>
<path d="M474.711 187.859H448.968C448.568 187.859 448.185 187.7 447.902 187.417C447.619 187.135 447.46 186.751 447.46 186.351V160.655C447.46 160.255 447.302 159.872 447.019 159.589C446.736 159.306 446.353 159.147 445.953 159.147H439.39C438.99 159.147 438.606 159.306 438.324 159.589C438.041 159.872 437.882 160.255 437.882 160.655V195.93C437.882 196.33 438.041 196.713 438.324 196.996C438.606 197.278 438.99 197.437 439.39 197.437H474.711C475.111 197.437 475.494 197.278 475.777 196.996C476.06 196.713 476.218 196.33 476.218 195.93V189.366C476.218 188.967 476.06 188.583 475.777 188.3C475.494 188.018 475.111 187.859 474.711 187.859Z" fill="#FF4E00"/>
<path d="M534.523 159.17H511.818C511.419 159.173 511.036 159.331 510.751 159.611C510.469 159.904 510.311 160.295 510.311 160.701V195.976C510.311 196.174 510.35 196.37 510.425 196.553C510.501 196.736 510.612 196.902 510.752 197.042C510.892 197.182 511.058 197.293 511.241 197.369C511.424 197.445 511.62 197.484 511.818 197.484H534.616C536.514 197.509 538.398 197.152 540.155 196.435C541.913 195.719 543.509 194.656 544.848 193.31C546.187 191.965 547.242 190.364 547.95 188.603C548.659 186.842 549.006 184.956 548.972 183.058V173.642C548.953 169.759 547.489 166.023 544.867 163.16C543.508 161.821 541.889 160.777 540.109 160.09C538.33 159.404 536.428 159.091 534.523 159.17ZM534.523 187.905H521.489C521.083 187.904 520.692 187.747 520.399 187.465C520.119 187.18 519.96 186.797 519.958 186.398V170.163C519.957 169.965 519.995 169.769 520.071 169.585C520.146 169.402 520.258 169.236 520.399 169.097C520.533 168.949 520.698 168.832 520.883 168.756C521.067 168.68 521.267 168.646 521.466 168.656H534.593C537.283 168.656 538.187 169.653 538.698 170.627C539.138 171.509 539.391 172.472 539.44 173.457V182.965C539.485 183.63 539.387 184.296 539.151 184.919C538.916 185.542 538.55 186.107 538.077 186.576C537.603 187.045 537.035 187.406 536.41 187.635C535.785 187.865 535.117 187.957 534.453 187.905H534.523Z" fill="#FF4E00"/>
<path d="M593.152 159.147H586.589C586.189 159.147 585.806 159.306 585.523 159.589C585.24 159.872 585.082 160.255 585.082 160.655V195.976C585.082 196.174 585.121 196.37 585.196 196.553C585.272 196.736 585.383 196.902 585.523 197.042C585.663 197.182 585.829 197.293 586.012 197.369C586.195 197.445 586.391 197.484 586.589 197.484H593.152C593.352 197.487 593.551 197.45 593.736 197.376C593.922 197.301 594.091 197.191 594.233 197.05C594.376 196.91 594.489 196.743 594.566 196.558C594.643 196.374 594.683 196.176 594.683 195.976V160.655C594.683 160.455 594.643 160.257 594.566 160.072C594.489 159.888 594.376 159.721 594.233 159.581C594.091 159.44 593.922 159.33 593.736 159.255C593.551 159.181 593.352 159.144 593.152 159.147Z" fill="#FF4E00"/>
<path d="M667.923 159.147H661.36C660.96 159.147 660.577 159.306 660.294 159.589C660.011 159.872 659.853 160.255 659.853 160.655V180.785C659.85 180.946 659.798 181.102 659.702 181.231C659.606 181.36 659.472 181.456 659.319 181.504C659.169 181.553 659.006 181.552 658.856 181.502C658.706 181.452 658.576 181.355 658.484 181.226L642.435 159.75C642.299 159.559 642.118 159.404 641.907 159.299C641.697 159.194 641.464 159.142 641.229 159.147H632.718C632.318 159.147 631.935 159.306 631.652 159.589C631.369 159.872 631.21 160.255 631.21 160.655V195.976C631.21 196.174 631.249 196.37 631.325 196.553C631.401 196.736 631.512 196.902 631.652 197.042C631.792 197.182 631.958 197.293 632.141 197.369C632.324 197.445 632.52 197.484 632.718 197.484H639.305C639.702 197.478 640.082 197.317 640.364 197.035C640.645 196.754 640.806 196.374 640.812 195.976V175.846C640.813 175.688 640.862 175.534 640.953 175.405C641.045 175.276 641.173 175.179 641.322 175.127C641.473 175.078 641.635 175.079 641.785 175.129C641.936 175.179 642.066 175.275 642.157 175.405L658.206 196.881C658.345 197.054 658.522 197.195 658.722 197.291C658.923 197.387 659.143 197.437 659.366 197.437H667.877C668.277 197.437 668.66 197.278 668.943 196.996C669.226 196.713 669.385 196.33 669.385 195.93V160.655C669.385 160.255 669.226 159.872 668.943 159.589C668.66 159.306 668.277 159.147 667.877 159.147H667.923Z" fill="#FF4E00"/>
<path d="M742.416 159.147H719.966C718.069 159.153 716.192 159.534 714.442 160.268C712.692 161.002 711.105 162.074 709.771 163.423C708.437 164.772 707.383 166.371 706.669 168.129C705.955 169.887 705.595 171.768 705.61 173.665V183.081C705.588 184.987 705.95 186.877 706.673 188.639C707.397 190.402 708.468 192 709.823 193.34C711.178 194.68 712.789 195.733 714.559 196.437C716.33 197.141 718.224 197.481 720.129 197.437H742.416C742.816 197.437 743.199 197.278 743.482 196.996C743.765 196.713 743.923 196.33 743.923 195.93V175.057C743.921 174.658 743.763 174.275 743.483 173.99C743.345 173.847 743.179 173.734 742.996 173.658C742.812 173.582 742.615 173.545 742.416 173.55H726.39C725.991 173.55 725.607 173.708 725.324 173.991C725.042 174.274 724.883 174.657 724.883 175.057V181.62C724.883 182.02 725.042 182.404 725.324 182.686C725.607 182.969 725.991 183.128 726.39 183.128H732.815C733.217 183.128 733.602 183.286 733.889 183.568C734.175 183.85 734.339 184.233 734.345 184.635V186.421C734.339 186.823 734.175 187.206 733.889 187.488C733.602 187.771 733.217 187.929 732.815 187.929H720.129C719.468 187.97 718.806 187.87 718.188 187.634C717.57 187.399 717.009 187.034 716.543 186.564C716.077 186.094 715.718 185.529 715.488 184.909C715.258 184.288 715.164 183.625 715.212 182.965V173.689C715.105 172.872 715.253 172.041 715.635 171.311C716.016 170.581 716.614 169.986 717.345 169.607C718.27 169.122 719.277 168.815 720.314 168.702H742.462C742.862 168.702 743.246 168.544 743.528 168.261C743.811 167.978 743.97 167.595 743.97 167.195V160.655C743.97 160.453 743.93 160.253 743.851 160.067C743.772 159.881 743.657 159.713 743.512 159.572C743.367 159.431 743.195 159.321 743.007 159.248C742.819 159.175 742.618 159.141 742.416 159.147Z" fill="#FF4E00"/>
<path d="M29.9581 0.305328H7.2995C4.43037 0.305328 2.10449 2.63121 2.10449 5.50033V56.5923C2.10449 59.4614 4.43037 61.7873 7.2995 61.7873H29.9581C32.8272 61.7873 35.1531 59.4614 35.1531 56.5923V5.50033C35.1531 2.63121 32.8272 0.305328 29.9581 0.305328Z" fill="#FF4E00"/>
<path d="M188.846 0.305328H161.178C160.282 0.312927 159.403 0.549093 158.624 0.991465C157.845 1.43384 157.191 2.06777 156.725 2.83325L130.124 47.014C129.893 47.3982 129.567 47.7161 129.177 47.9369C128.787 48.1576 128.346 48.2736 127.898 48.2736C127.45 48.2736 127.009 48.1576 126.619 47.9369C126.229 47.7161 125.902 47.3982 125.671 47.014L108.486 18.7198C108.187 18.2383 107.741 17.8667 107.213 17.6606C106.685 17.4545 106.105 17.425 105.559 17.5765C105.013 17.728 104.531 18.0524 104.184 18.501C103.838 18.9496 103.647 19.4984 103.639 20.0649V72.9426C103.646 73.8922 103.91 74.822 104.404 75.6329L125.811 110.838C126.047 111.238 126.387 111.567 126.796 111.787C127.205 112.008 127.666 112.113 128.13 112.091C128.593 112.108 129.052 112.001 129.46 111.781C129.868 111.56 130.209 111.235 130.449 110.838L156.099 67.794C156.398 67.3126 156.845 66.941 157.373 66.7349C157.9 66.5287 158.481 66.4992 159.027 66.6507C159.573 66.8023 160.055 67.1266 160.401 67.5753C160.747 68.0239 160.938 68.5726 160.946 69.1391V127.281C160.943 127.972 161.078 128.655 161.342 129.293C161.606 129.93 161.994 130.509 162.484 130.995C162.974 131.481 163.556 131.864 164.196 132.122C164.836 132.381 165.521 132.509 166.211 132.5H188.846C190.224 132.5 191.546 131.952 192.52 130.978C193.494 130.004 194.041 128.682 194.041 127.305V5.52353C194.045 4.83992 193.914 4.1623 193.655 3.52952C193.396 2.89674 193.015 2.32123 192.534 1.836C191.553 0.861392 190.229 0.311585 188.846 0.305328Z" fill="#FF4E00"/>
<path d="M340.731 11.623C332.875 4.4225 322.629 0.390089 311.973 0.305328L225.814 0.305328C224.461 0.305328 223.163 0.842884 222.207 1.79974C221.25 2.75659 220.712 4.05437 220.712 5.40757V127.374C220.709 128.045 220.839 128.71 221.094 129.33C221.35 129.951 221.725 130.515 222.2 130.989C222.674 131.463 223.238 131.839 223.858 132.094C224.479 132.35 225.144 132.48 225.814 132.476H248.659C249.329 132.476 249.992 132.344 250.611 132.088C251.23 131.832 251.793 131.456 252.266 130.982C252.74 130.508 253.116 129.946 253.372 129.327C253.629 128.708 253.761 128.044 253.761 127.374V38.4562C253.758 37.7853 253.888 37.1204 254.143 36.5C254.398 35.8796 254.774 35.3159 255.248 34.8415C255.723 34.3671 256.286 33.9914 256.907 33.736C257.527 33.4807 258.192 33.3508 258.863 33.3539H312.205C314.136 33.4947 315.991 34.1692 317.562 35.302C318.754 37.0666 319.303 39.1875 319.116 41.3088C319.116 49.4723 313.271 49.7738 310.372 49.8666H267.931C266.582 49.8787 265.291 50.4202 264.337 51.3744C263.382 52.3286 262.841 53.6194 262.829 54.9688V77.813C262.829 79.1661 263.366 80.4639 264.323 81.4208C265.28 82.3776 266.578 82.9152 267.931 82.9152H310.558C317.476 82.7732 324.277 81.1104 330.48 78.0449C344.395 71.0873 352.164 58.007 352.164 41.3088C352.257 26.0716 345.995 16.7484 340.731 11.623Z" fill="#FF4E00"/>
<path d="M463.045 132.5C463.88 132.499 464.702 132.299 465.443 131.915C466.184 131.531 466.822 130.975 467.304 130.293C467.785 129.611 468.097 128.824 468.211 127.998C468.326 127.171 468.24 126.329 467.962 125.542L424.895 3.78414C424.535 2.76726 423.869 1.88676 422.989 1.26379C422.108 0.640814 421.056 0.305979 419.978 0.305346H391.011C389.932 0.30257 388.878 0.636072 387.997 1.25951C387.116 1.88295 386.451 2.76536 386.094 3.78414L343.027 125.542C342.749 126.329 342.663 127.171 342.778 127.998C342.892 128.824 343.203 129.611 343.685 130.293C344.167 130.975 344.805 131.531 345.546 131.915C346.287 132.299 347.109 132.499 347.944 132.5H371.947C373.022 132.497 374.07 132.165 374.95 131.547C375.829 130.928 376.498 130.055 376.864 129.044L381.502 115.685L393.098 82.6369L400.427 61.9265C400.782 60.9086 401.445 60.0264 402.324 59.4022C403.203 58.778 404.254 58.4426 405.332 58.4426C406.41 58.4426 407.461 58.778 408.34 59.4022C409.219 60.0264 409.882 60.9086 410.237 61.9265L415.107 75.7025C415.391 76.4874 415.48 77.329 415.37 78.1561C415.259 78.9831 414.95 79.7712 414.47 80.4537C413.99 81.1363 413.352 81.6931 412.612 82.0772C411.871 82.4612 411.048 82.6612 410.214 82.6601H406.526C405.479 82.695 404.467 83.0428 403.619 83.6588C402.772 84.2747 402.128 85.1305 401.772 86.1157L393.771 108.751C393.488 109.536 393.398 110.378 393.509 111.205C393.62 112.032 393.928 112.82 394.408 113.502C394.889 114.185 395.526 114.742 396.267 115.126C397.008 115.51 397.83 115.71 398.664 115.709H425.729C426.803 115.706 427.851 116.037 428.727 116.656C429.604 117.275 430.267 118.152 430.623 119.164L434.125 129.067C434.495 130.074 435.165 130.942 436.044 131.556C436.923 132.17 437.969 132.499 439.042 132.5H463.045Z" fill="#FF4E00"/>
<path d="M595.054 99.4279H518.265C512.189 99.4279 502.031 97.1087 501.289 82.3354V76.1895C501.292 75.5054 501.16 74.8273 500.9 74.1944C500.64 73.5614 500.258 72.986 499.775 72.5011C499.293 72.0162 498.719 71.6315 498.087 71.369C497.455 71.1065 496.778 70.9713 496.094 70.9713H473.458C472.074 70.9713 470.747 71.5211 469.769 72.4997C468.79 73.4783 468.24 74.8056 468.24 76.1895V82.8224C468.519 102.791 482.155 132.476 518.265 132.476H595.054C595.738 132.476 596.416 132.341 597.047 132.079C597.679 131.816 598.253 131.432 598.736 130.947C599.218 130.462 599.601 129.886 599.86 129.253C600.12 128.62 600.252 127.942 600.249 127.258V104.669C600.255 103.983 600.125 103.303 599.867 102.667C599.609 102.031 599.227 101.453 598.744 100.966C598.261 100.479 597.686 100.092 597.053 99.8277C596.42 99.5638 595.74 99.4279 595.054 99.4279Z" fill="#FF4E00"/>
<path d="M595.054 0.305328H517.662C497.81 1.04747 468.24 14.9395 468.24 50.3304V56.5923C468.24 57.2765 468.375 57.9539 468.638 58.5857C468.9 59.2175 469.285 59.7912 469.77 60.2739C470.255 60.7566 470.83 61.1388 471.463 61.3985C472.096 61.6582 472.774 61.7903 473.458 61.7873H496.094C496.776 61.7873 497.452 61.6529 498.082 61.3918C498.712 61.1308 499.285 60.7481 499.767 60.2657C500.25 59.7833 500.632 59.2106 500.893 58.5803C501.154 57.95 501.289 57.2745 501.289 56.5923V50.3073C501.289 41.703 504.93 38.4793 508.502 36.3921C511.683 34.6941 515.165 33.6307 518.752 33.2611H595.054C595.732 33.2673 596.405 33.1394 597.033 32.8848C597.662 32.6303 598.234 32.2541 598.716 31.7778C599.199 31.3016 599.583 30.7347 599.846 30.1096C600.109 29.4846 600.246 28.8138 600.249 28.1357V5.50033C600.249 4.12253 599.702 2.80116 598.727 1.82691C597.753 0.852658 596.432 0.305328 595.054 0.305328Z" fill="#FF4E00"/>
<path d="M690.86 42.5379H668.202C665.332 42.5379 663.007 44.8638 663.007 47.733V127.281C663.007 130.151 665.332 132.476 668.202 132.476H690.86C693.729 132.476 696.055 130.151 696.055 127.281V47.733C696.055 44.8638 693.729 42.5379 690.86 42.5379Z" fill="#FF4E00"/>
<path d="M740.097 0.305328H618.942C617.562 0.311461 616.241 0.863941 615.267 1.84188C614.293 2.81982 613.747 4.14358 613.747 5.52353V28.1357C613.747 29.5135 614.294 30.8349 615.268 31.8091C616.243 32.7834 617.564 33.3307 618.942 33.3307H740.097C741.475 33.3307 742.796 32.7834 743.77 31.8091C744.744 30.8349 745.292 29.5135 745.292 28.1357V5.52353C745.295 4.83936 745.163 4.16133 744.903 3.52836C744.643 2.89539 744.261 2.31996 743.778 1.8351C743.296 1.35024 742.722 0.965504 742.09 0.702982C741.458 0.440459 740.781 0.305322 740.097 0.305328Z" fill="#FF4E00"/>
<path d="M29.935 70.9713H7.29959C5.91712 70.9776 4.59258 71.5274 3.61207 72.502C3.13053 72.9872 2.7495 73.5627 2.49081 74.1955C2.23213 74.8283 2.10088 75.5059 2.10459 76.1895V127.212C2.09227 127.902 2.21754 128.587 2.47309 129.228C2.72864 129.869 3.10935 130.453 3.59298 130.945C4.07661 131.438 4.65348 131.829 5.28989 132.096C5.9263 132.362 6.6095 132.5 7.29959 132.5H29.935C31.3128 132.5 32.6341 131.952 33.6084 130.978C34.5826 130.004 35.13 128.682 35.13 127.305V76.2823C35.1454 75.5904 35.0225 74.9024 34.7683 74.2586C34.5142 73.6149 34.134 73.0284 33.65 72.5337C33.1661 72.0389 32.5881 71.6459 31.9502 71.3776C31.3122 71.1093 30.6271 70.9712 29.935 70.9713Z" fill="#FF4E00"/>
<path d="M94.4783 127.281V5.50033C94.4722 4.1204 93.9197 2.79909 92.9418 1.82549C91.9638 0.851903 90.6401 0.305315 89.2601 0.305328L66.6247 0.305328C65.9406 0.305322 65.2631 0.440459 64.6313 0.702982C63.9995 0.965504 63.4258 1.35024 62.9431 1.8351C62.4604 2.31996 62.0782 2.89539 61.8185 3.52836C61.5588 4.16133 61.4267 4.83936 61.4297 5.52353V127.281C61.4267 127.966 61.5588 128.644 61.8185 129.277C62.0782 129.91 62.4604 130.485 62.9431 130.97C63.4258 131.455 63.9995 131.839 64.6313 132.102C65.2631 132.365 65.9406 132.5 66.6247 132.5H89.2601C90.6441 132.5 91.9713 131.95 92.9499 130.971C93.9285 129.993 94.4783 128.665 94.4783 127.281Z" fill="#FF4E00"/>
</svg>
