<svg width="24" height="25" viewBox="0 0 24 25" fill="none" xmlns="http://www.w3.org/2000/svg">
<path d="M16.5 6.4624H13.5C12.9477 6.4624 12.5 6.91012 12.5 7.4624V10.4624H16.5C16.6137 10.4599 16.7216 10.5128 16.7892 10.6043C16.8568 10.6958 16.8758 10.8144 16.84 10.9224L16.1 13.1224C16.0318 13.3243 15.8431 13.4608 15.63 13.4624H12.5V20.9624C12.5 21.2385 12.2761 21.4624 12 21.4624H9.5C9.22386 21.4624 9 21.2385 9 20.9624V13.4624H7.5C7.22386 13.4624 7 13.2385 7 12.9624V10.9624C7 10.6863 7.22386 10.4624 7.5 10.4624H9V7.4624C9 5.25326 10.7909 3.4624 13 3.4624H16.5C16.7761 3.4624 17 3.68626 17 3.9624V5.9624C17 6.23854 16.7761 6.4624 16.5 6.4624Z" fill="white"/>
</svg>
