<svg width="24" height="25" viewBox="0 0 24 25" fill="none" xmlns="http://www.w3.org/2000/svg">
<path fill-rule="evenodd" clip-rule="evenodd" d="M16 3.4624H8C5.23858 3.4624 3 5.70098 3 8.4624V16.4624C3 19.2238 5.23858 21.4624 8 21.4624H16C18.7614 21.4624 21 19.2238 21 16.4624V8.4624C21 5.70098 18.7614 3.4624 16 3.4624ZM19.25 16.4624C19.2445 18.255 17.7926 19.7069 16 19.7124H8C6.20735 19.7069 4.75549 18.255 4.75 16.4624V8.4624C4.75549 6.66975 6.20735 5.21789 8 5.2124H16C17.7926 5.21789 19.2445 6.66975 19.25 8.4624V16.4624ZM16.75 8.7124C17.3023 8.7124 17.75 8.26468 17.75 7.7124C17.75 7.16012 17.3023 6.7124 16.75 6.7124C16.1977 6.7124 15.75 7.16012 15.75 7.7124C15.75 8.26468 16.1977 8.7124 16.75 8.7124ZM12 7.9624C9.51472 7.9624 7.5 9.97712 7.5 12.4624C7.5 14.9477 9.51472 16.9624 12 16.9624C14.4853 16.9624 16.5 14.9477 16.5 12.4624C16.5027 11.2681 16.0294 10.122 15.1849 9.27748C14.3404 8.43299 13.1943 7.95974 12 7.9624ZM9.25 12.4624C9.25 13.9812 10.4812 15.2124 12 15.2124C13.5188 15.2124 14.75 13.9812 14.75 12.4624C14.75 10.9436 13.5188 9.7124 12 9.7124C10.4812 9.7124 9.25 10.9436 9.25 12.4624Z" fill="white"/>
</svg>
