<svg width="24" height="25" viewBox="0 0 24 25" fill="none" xmlns="http://www.w3.org/2000/svg">
<path fill-rule="evenodd" clip-rule="evenodd" d="M5 3.4624H19C20.1046 3.4624 21 4.35783 21 5.4624V19.4624C21 20.567 20.1046 21.4624 19 21.4624H5C3.89543 21.4624 3 20.567 3 19.4624V5.4624C3 4.35783 3.89543 3.4624 5 3.4624ZM8 18.4624C8.27614 18.4624 8.5 18.2385 8.5 17.9624V10.9624C8.5 10.6863 8.27614 10.4624 8 10.4624H6.5C6.22386 10.4624 6 10.6863 6 10.9624V17.9624C6 18.2385 6.22386 18.4624 6.5 18.4624H8ZM7.25 9.4624C6.42157 9.4624 5.75 8.79083 5.75 7.9624C5.75 7.13397 6.42157 6.4624 7.25 6.4624C8.07843 6.4624 8.75 7.13397 8.75 7.9624C8.75 8.79083 8.07843 9.4624 7.25 9.4624ZM17.5 18.4624C17.7761 18.4624 18 18.2385 18 17.9624V13.3624C18.0325 11.7732 16.8576 10.4169 15.28 10.2224C14.177 10.1217 13.1083 10.6368 12.5 11.5624V10.9624C12.5 10.6863 12.2761 10.4624 12 10.4624H10.5C10.2239 10.4624 10 10.6863 10 10.9624V17.9624C10 18.2385 10.2239 18.4624 10.5 18.4624H12C12.2761 18.4624 12.5 18.2385 12.5 17.9624V14.2124C12.5 13.384 13.1716 12.7124 14 12.7124C14.8284 12.7124 15.5 13.384 15.5 14.2124V17.9624C15.5 18.2385 15.7239 18.4624 16 18.4624H17.5Z" fill="white"/>
</svg>
