<svg width="24" height="25" viewBox="0 0 24 25" fill="none" xmlns="http://www.w3.org/2000/svg">
<path d="M20.9728 7.1798C20.5084 7.79932 19.947 8.33973 19.3103 8.78016C19.3103 8.94199 19.3103 9.10382 19.3103 9.27465C19.3154 12.2135 18.1415 15.0315 16.0518 17.0969C13.962 19.1623 11.1312 20.3023 8.19405 20.2613C6.49599 20.267 4.81967 19.8793 3.29642 19.1285C3.21428 19.0926 3.16131 19.0114 3.16162 18.9217V18.8228C3.16162 18.6937 3.26623 18.5891 3.39527 18.5891C5.06442 18.534 6.67402 17.9553 7.99634 16.9348C6.48553 16.9043 5.12619 16.0093 4.5006 14.6331C4.46901 14.558 4.47884 14.4717 4.52657 14.4056C4.57429 14.3395 4.653 14.3031 4.73425 14.3095C5.19342 14.3556 5.65718 14.3129 6.1002 14.1836C4.43239 13.8374 3.17921 12.4528 2.99986 10.7581C2.99349 10.6768 3.02992 10.5981 3.096 10.5503C3.16207 10.5026 3.24824 10.4927 3.32338 10.5244C3.77094 10.7219 4.25409 10.8259 4.74324 10.83C3.28184 9.87086 2.65061 8.04645 3.20655 6.38862C3.26394 6.22753 3.40181 6.10852 3.5695 6.07534C3.73718 6.04215 3.90996 6.09968 4.02432 6.22679C5.99639 8.32565 8.70604 9.57636 11.5819 9.71519C11.5083 9.42125 11.4721 9.11916 11.4741 8.81612C11.501 7.22712 12.4842 5.81161 13.9634 5.23227C15.4425 4.65294 17.1249 5.02443 18.223 6.17284C18.9714 6.03025 19.695 5.77885 20.3707 5.42661C20.4202 5.39571 20.483 5.39571 20.5325 5.42661C20.5634 5.47613 20.5634 5.53892 20.5325 5.58844C20.2052 6.33792 19.6523 6.96652 18.9509 7.38659C19.5651 7.31536 20.1685 7.17047 20.7482 6.95504C20.797 6.92182 20.8611 6.92182 20.9099 6.95504C20.9508 6.97374 20.9814 7.00951 20.9935 7.05282C21.0056 7.09613 20.998 7.14258 20.9728 7.1798Z" fill="white"/>
</svg>
